<?xml version="1.0" standalone="no"?>
<!DOCTYPE svg PUBLIC "-//W3C//DTD SVG 20010904//EN"
 "http://www.w3.org/TR/2001/REC-SVG-20010904/DTD/svg10.dtd">
<svg version="1.0" xmlns="http://www.w3.org/2000/svg"
 width="779.000000pt" height="931.000000pt" viewBox="0 0 779.000000 931.000000"
 preserveAspectRatio="xMidYMid meet">

<g transform="translate(0.000000,931.000000) scale(0.100000,-0.100000)"
fill="#000000" stroke="none">
<path d="M2635 8320 c-88 -14 -200 -56 -281 -106 -81 -50 -194 -164 -242 -246
-77 -130 -114 -312 -94 -458 27 -186 96 -316 252 -470 59 -58 394 -388 746
-735 646 -637 1103 -1087 1559 -1538 l250 -247 -250 -247 c-480 -474 -925
-913 -1580 -1558 -833 -819 -827 -812 -876 -895 -132 -223 -142 -472 -26 -710
34 -71 57 -101 136 -180 79 -79 111 -103 181 -137 118 -57 203 -76 330 -76
150 0 270 34 390 111 65 41 139 111 605 571 978 966 2354 2322 2503 2466 144
140 208 217 253 307 91 181 102 448 26 636 -62 154 -46 137 -767 847 -201 198
-516 508 -700 690 -1621 1599 -1833 1806 -1897 1852 -139 99 -349 148 -518
123z"/>
</g>
</svg>
